<svg width="42" height="46" viewBox="0 0 42 46" fill="none" xmlns="http://www.w3.org/2000/svg">
<path fill-rule="evenodd" clip-rule="evenodd" d="M34.4098 0C35.5102 1.93813 35.3212 4.34146 33.7871 5.87553C33.1909 6.47177 32.4634 6.86482 31.6829 7.05795C28.5262 5.13557 24.8186 4.02823 20.8523 4.02823C9.3359 4.02823 0 13.3641 0 24.8806C0 36.397 9.3359 45.7329 20.8523 45.7329C32.3687 45.7329 41.7047 36.397 41.7047 24.8806C41.7047 19.6863 39.8055 14.9357 36.6637 11.2851C36.8931 11.2809 37.1232 11.2492 37.3511 11.1882C39.2113 10.6897 40.219 8.41858 39.6019 6.11541C39.4849 5.67881 39.318 5.2724 39.1115 4.90382C39.0987 6.67857 38.0114 8.26073 36.3427 8.70787C35.9085 8.82421 35.47 8.85432 35.0429 8.80824C35.5649 8.62825 36.0412 8.33985 36.4412 7.93982C38.1513 6.22971 37.8212 3.12702 35.704 1.00975C35.3026 0.608358 34.8658 0.271202 34.4098 0Z" fill="#979797"/>
<path fill-rule="evenodd" clip-rule="evenodd" d="M33.0506 6.84873C33.0303 6.86088 33.0099 6.8729 32.9893 6.88476C31.6302 7.66945 30.0016 7.61844 28.6332 6.89759C28.6612 6.94922 28.6899 7.00067 28.7195 7.05191L28.7292 7.06867C26.3187 6.0096 23.6542 5.42175 20.8524 5.42175C10.027 5.42175 1.25122 14.1975 1.25122 25.0229C1.25122 35.8484 10.027 44.6241 20.8524 44.6241C31.6778 44.6241 40.4536 35.8484 40.4536 25.0229C40.4536 19.4695 38.1441 14.4555 34.4332 10.889C34.6098 10.9882 34.7993 11.0663 35.0005 11.1202C36.5954 11.5476 38.3173 10.2933 38.8464 8.31859C38.9467 7.94421 38.997 7.57082 39.0016 7.20858C38.2865 8.42702 36.9547 9.12512 35.6227 8.91194C37.0129 7.53758 37.2028 5.02798 35.9583 2.87259C35.6875 2.40342 35.3681 1.98472 35.0147 1.62207C35.534 3.61776 34.8282 5.71713 33.1507 6.78679C33.1346 6.7414 33.1194 6.69557 33.1051 6.64935C33.0931 6.68959 33.0816 6.73014 33.0707 6.771C33.0637 6.79691 33.057 6.82282 33.0506 6.84873ZM33.4327 9.89787C33.3979 9.90041 33.3631 9.90247 33.3282 9.90404C33.4102 9.97172 33.4915 10.0401 33.5723 10.109C33.5233 10.0411 33.4767 9.97062 33.4327 9.89787Z" fill="white"/>
<path fill-rule="evenodd" clip-rule="evenodd" d="M36.9474 10.9316C37.7862 10.4805 38.4977 9.62226 38.8387 8.52035C38.9532 8.1501 39.0177 7.77892 39.0362 7.41715C38.4077 8.39977 37.3728 9.0119 36.2865 9.04695C36.3478 9.76028 36.5853 10.4111 36.9474 10.9316Z" fill="black"/>
<path fill-rule="evenodd" clip-rule="evenodd" d="M35.0578 1.97334C35.0731 1.96323 35.0883 1.95324 35.1037 1.94336C35.4076 2.26677 35.6831 2.63519 35.9194 3.04443C36.969 4.86247 36.9338 6.94841 35.9725 8.2921C34.9914 7.99114 34.1923 7.27427 33.7808 6.34717C34.9668 5.29501 35.4445 3.60495 35.0578 1.97334Z" fill="black"/>
<path fill-rule="evenodd" clip-rule="evenodd" d="M18.5586 23.6299C16.3705 23.6299 14.5967 25.4037 14.5967 27.5918C14.5967 29.7799 16.3705 31.5538 18.5586 31.5538H22.7291C24.9172 31.5538 26.691 29.7799 26.691 27.5918C26.691 25.4037 24.9172 23.6299 22.7291 23.6299H18.5586ZM18.9757 27.3833C18.6302 27.3833 18.3501 27.6633 18.3501 28.0088C18.3501 28.3543 18.6302 28.6344 18.9757 28.6344H22.7291C23.0746 28.6344 23.3547 28.3543 23.3547 28.0088C23.3547 27.6633 23.0746 27.3833 22.7291 27.3833H18.9757Z" fill="url(#paint0_linear_247_35)"/>
<path fill-rule="evenodd" clip-rule="evenodd" d="M8.75806 22.5866C8.75806 22.0107 9.22485 21.5439 9.80067 21.5439H12.303C12.8788 21.5439 13.3456 22.0107 13.3456 22.5866C13.3456 23.0304 13.0682 23.4095 12.6774 23.5599V24.8804L11.6774 24.8804V23.6292H11.0092V24.8804L10.0092 24.8804L10.0092 23.6292H9.80067C9.22485 23.6292 8.75806 23.1624 8.75806 22.5866Z" fill="black"/>
<path fill-rule="evenodd" clip-rule="evenodd" d="M29.8188 19.459C29.4733 19.459 29.1932 19.7391 29.1932 20.0846C29.1932 20.43 29.4733 20.7101 29.8188 20.7101H31.0699C31.4154 20.7101 31.6955 20.43 31.6955 20.0846C31.6955 19.7391 31.4154 19.459 31.0699 19.459H29.8188ZM29.4017 21.5442C28.8259 21.5442 28.3591 22.011 28.3591 22.5868C28.3591 23.1626 28.8259 23.6294 29.4017 23.6294H29.6102L29.6102 24.8806H30.6102L30.6102 23.6294H31.2785V24.8806H32.2785V23.5602C32.6693 23.4097 32.9466 23.0306 32.9466 22.5868C32.9466 22.011 32.4798 21.5442 31.904 21.5442H29.4017Z" fill="black"/>
<ellipse cx="12.3028" cy="22.378" rx="0.62557" ry="0.417047" fill="white"/>
<ellipse cx="31.9041" cy="22.378" rx="0.62557" ry="0.417047" fill="white"/>
<defs>
<linearGradient id="paint0_linear_247_35" x1="20.6439" y1="23.6299" x2="20.6439" y2="31.5538" gradientUnits="userSpaceOnUse">
<stop stop-color="#EFC88C"/>
<stop offset="1" stop-color="#E78830"/>
</linearGradient>
</defs>
</svg>
