<svg width="49" height="54" viewBox="0 0 49 54" fill="none" xmlns="http://www.w3.org/2000/svg">
<path fill-rule="evenodd" clip-rule="evenodd" d="M40.429 0C41.722 2.27717 41.5 5.10094 39.6975 6.90337C38.997 7.6039 38.1422 8.0657 37.2252 8.29262C33.5163 6.03394 29.1601 4.73288 24.5 4.73288C10.969 4.73288 0 15.7019 0 29.2329C0 42.7639 10.969 53.7329 24.5 53.7329C38.031 53.7329 49 42.7639 49 29.2329C49 23.1301 46.7686 17.5484 43.0773 13.2593C43.3469 13.2543 43.6172 13.2171 43.8849 13.1454C46.0705 12.5598 47.2545 9.8913 46.5295 7.18524C46.392 6.67224 46.1958 6.19471 45.9532 5.76164C45.9382 7.84688 44.6607 9.70582 42.7 10.2312C42.1899 10.3679 41.6746 10.4033 41.1729 10.3491C41.7863 10.1376 42.3458 9.79879 42.8159 9.32875C44.8251 7.3195 44.4373 3.67405 41.9497 1.18641C41.4781 0.714794 40.9648 0.318648 40.429 0Z" fill="#979797"/>
<path fill-rule="evenodd" clip-rule="evenodd" d="M38.8319 8.04663C38.8081 8.06091 38.7841 8.07502 38.76 8.08895C37.1632 9.01089 35.2497 8.95097 33.6419 8.10403C33.6747 8.16468 33.7085 8.22512 33.7433 8.28533L33.7547 8.305C30.9224 7.06065 27.7919 6.36998 24.5 6.36998C11.7809 6.36998 1.46997 16.6809 1.46997 29.4C1.46997 42.1191 11.7809 52.43 24.5 52.43C37.2191 52.43 47.53 42.1191 47.53 29.4C47.53 22.875 44.8164 16.9838 40.4563 12.7934C40.6638 12.9101 40.8866 13.0019 41.123 13.0652C42.9969 13.5673 45.02 12.0936 45.6416 9.77348C45.7595 9.33364 45.8185 8.89497 45.824 8.4694C44.9837 9.90091 43.4191 10.7211 41.8541 10.4706C43.4874 8.85585 43.7105 5.90731 42.2484 3.37492C41.9301 2.82368 41.5549 2.33173 41.1397 1.90564C41.7499 4.25041 40.9205 6.71701 38.9497 7.9738C38.9307 7.92041 38.9128 7.86652 38.896 7.81217C38.8819 7.85946 38.8685 7.90713 38.8556 7.95516C38.8474 7.98566 38.8395 8.01615 38.8319 8.04663ZM39.281 11.6291C39.2402 11.6321 39.1992 11.6345 39.1582 11.6364C39.2545 11.7159 39.3502 11.7963 39.4452 11.8773C39.3875 11.7975 39.3327 11.7146 39.281 11.6291Z" fill="white"/>
<path fill-rule="evenodd" clip-rule="evenodd" d="M43.4105 12.844C44.3961 12.314 45.2321 11.3056 45.6327 10.0109C45.7673 9.57586 45.8431 9.13978 45.8648 8.71475C45.1264 9.86926 43.9104 10.5884 42.634 10.6296C42.7061 11.4677 42.9851 12.2324 43.4105 12.844Z" fill="black"/>
<path fill-rule="evenodd" clip-rule="evenodd" d="M41.2443 2.28287C41.6014 2.66285 41.9251 3.09572 42.2027 3.57655C43.4359 5.71262 43.3946 8.16346 42.2651 9.7422C41.1124 9.3886 40.1735 8.54633 39.6899 7.45705C41.0835 6.22084 41.6447 4.23513 41.1904 2.31809C41.2083 2.30621 41.2263 2.29447 41.2443 2.28287Z" fill="black"/>
<path fill-rule="evenodd" clip-rule="evenodd" d="M21.8051 27.7629C19.2343 27.7629 17.1501 29.847 17.1501 32.4179C17.1501 34.9888 19.2343 37.0729 21.8051 37.0729H26.7051C29.276 37.0729 31.3601 34.9888 31.3601 32.4179C31.3601 29.847 29.276 27.7629 26.7051 27.7629H21.8051ZM22.2952 32.1729C21.8892 32.1729 21.5602 32.5019 21.5602 32.9079C21.5602 33.3138 21.8892 33.6429 22.2952 33.6429H26.7052C27.1111 33.6429 27.4402 33.3138 27.4402 32.9079C27.4402 32.5019 27.1111 32.1729 26.7052 32.1729H22.2952Z" fill="url(#paint0_linear_15_9)"/>
<path fill-rule="evenodd" clip-rule="evenodd" d="M10.29 26.5379C10.29 25.8613 10.8385 25.3129 11.515 25.3129H14.455C15.1316 25.3129 15.68 25.8613 15.68 26.5379C15.68 27.1234 15.2692 27.613 14.72 27.7341L14.72 29.2329L13.72 29.2329V27.7629H12.7601L12.7601 29.2329L11.7601 29.2329L11.7601 27.7629H11.515C10.8385 27.7629 10.29 27.2144 10.29 26.5379Z" fill="black"/>
<path fill-rule="evenodd" clip-rule="evenodd" d="M35.035 22.8629C34.6291 22.8629 34.3 23.1919 34.3 23.5979C34.3 24.0038 34.6291 24.3329 35.035 24.3329H36.505C36.911 24.3329 37.24 24.0038 37.24 23.5979C37.24 23.1919 36.911 22.8629 36.505 22.8629H35.035ZM34.5451 25.3128C33.8685 25.3128 33.3201 25.8613 33.3201 26.5378C33.3201 27.2143 33.8685 27.7628 34.5451 27.7628H34.79L34.79 29.2328H35.79V27.7628H36.7501V29.2328H37.7501L37.7501 27.7341C38.2992 27.613 38.7101 27.1234 38.7101 26.5378C38.7101 25.8613 38.1616 25.3128 37.4851 25.3128H34.5451Z" fill="black"/>
<ellipse cx="14.455" cy="26.2929" rx="0.735" ry="0.49" fill="white"/>
<ellipse cx="37.485" cy="26.2929" rx="0.735" ry="0.49" fill="white"/>
<defs>
<linearGradient id="paint0_linear_15_9" x1="24.2551" y1="27.7629" x2="24.2551" y2="37.0729" gradientUnits="userSpaceOnUse">
<stop stop-color="#EFC88C"/>
<stop offset="1" stop-color="#E78830"/>
</linearGradient>
</defs>
</svg>
