<svg width="100" height="110" viewBox="0 0 100 110" fill="none" xmlns="http://www.w3.org/2000/svg">
<path fill-rule="evenodd" clip-rule="evenodd" d="M82.5082 0C85.1469 4.64728 84.6937 10.41 81.0153 14.0885C79.5856 15.5181 77.8411 16.4606 75.9696 16.9237C68.4005 12.3141 59.5103 9.65895 50 9.65895C22.3858 9.65895 0 32.0447 0 59.6589C0 87.2732 22.3858 109.659 50 109.659C77.6142 109.659 100 87.2732 100 59.6589C100 47.2042 95.4462 35.8131 87.9128 27.0598C88.463 27.0495 89.0147 26.9737 89.561 26.8273C94.0215 25.6321 96.4379 20.1863 94.9582 14.6637C94.6776 13.6168 94.2772 12.6422 93.782 11.7584C93.7514 16.0139 91.1444 19.8077 87.143 20.8799C86.1018 21.1589 85.0503 21.2311 84.0263 21.1206C85.278 20.689 86.42 19.9974 87.3792 19.0382C91.4798 14.9377 90.6883 7.49801 85.6115 2.42119C84.649 1.45873 83.6016 0.650292 82.5082 0Z" fill="#A5A5A5"/>
<path fill-rule="evenodd" clip-rule="evenodd" d="M79.2489 16.4218C79.2003 16.4509 79.1515 16.4797 79.1023 16.5081C75.8434 18.3896 71.9383 18.2673 68.6572 16.5389C68.7242 16.6627 68.7932 16.786 68.8641 16.9089L68.8874 16.949C63.1072 14.4095 56.7182 12.9999 50 12.9999C24.0426 12.9999 3 34.0426 3 59.9999C3 85.9573 24.0426 107 50 107C75.9574 107 97 85.9573 97 59.9999C97 46.6837 91.4622 34.6609 82.5639 26.109C82.9874 26.3471 83.442 26.5344 83.9246 26.6637C87.7489 27.6884 91.8776 24.6807 93.1463 19.9459C93.3868 19.0483 93.5073 18.153 93.5185 17.2845C91.8037 20.2059 88.6105 21.8797 85.4168 21.3687C88.75 18.0732 89.2052 12.0558 86.2214 6.88762C85.5719 5.76262 84.806 4.75862 83.9587 3.88904C85.204 8.67433 83.5115 13.7083 79.4893 16.2731C79.4506 16.1641 79.4141 16.0541 79.3797 15.9431C79.351 16.0397 79.3235 16.137 79.2972 16.235C79.2805 16.2973 79.2644 16.3596 79.2489 16.4218ZM80.1654 23.7329C80.082 23.739 79.9985 23.744 79.9149 23.7477C80.1114 23.9101 80.3066 24.074 80.5004 24.2395C80.3827 24.0765 80.2709 23.9075 80.1654 23.7329Z" fill="white"/>
<path fill-rule="evenodd" clip-rule="evenodd" d="M88.5928 26.2122C90.6041 25.1306 92.3104 23.0726 93.1279 20.4304C93.4025 19.5426 93.5572 18.6526 93.6016 17.7852C92.0945 20.1414 89.6129 21.6091 87.008 21.6931C87.1551 23.4036 87.7246 24.9642 88.5928 26.2122Z" fill="black"/>
<path fill-rule="evenodd" clip-rule="evenodd" d="M84.1723 4.65894C84.9009 5.43439 85.5615 6.31775 86.128 7.29897C88.6449 11.6584 88.5605 16.6601 86.2553 19.882C83.9029 19.1604 81.9868 17.4414 81 15.2184C83.844 12.6956 84.9893 8.64314 84.0623 4.73084C84.0988 4.7066 84.1355 4.68263 84.1723 4.65894Z" fill="black"/>
<path fill-rule="evenodd" clip-rule="evenodd" d="M40 56.6589C37.2386 56.6589 35 58.8975 35 61.6589V70.6589C35 73.4204 37.2386 75.6589 40 75.6589H59C61.7614 75.6589 64 73.4204 64 70.6589V61.6589C64 58.8975 61.7614 56.6589 59 56.6589H40ZM45.5 65.6589C44.6716 65.6589 44 66.3305 44 67.1589C44 67.9874 44.6716 68.6589 45.5 68.6589H54.5C55.3284 68.6589 56 67.9874 56 67.1589C56 66.3305 55.3284 65.6589 54.5 65.6589H45.5Z" fill="url(#paint0_linear_291_1569)"/>
<path fill-rule="evenodd" clip-rule="evenodd" d="M21 53.6589C21 52.5544 21.8954 51.6589 23 51.6589H30C31.1046 51.6589 32 52.5544 32 53.6589V54.6589C32 55.7635 31.1046 56.6589 30 56.6589H29V59.6589H28V56.6589H25L25 59.6589H24L24 56.6589H23C21.8954 56.6589 21 55.7635 21 54.6589V53.6589Z" fill="black"/>
<path fill-rule="evenodd" clip-rule="evenodd" d="M71.5 46.6589C70.6716 46.6589 70 47.3305 70 48.1589C70 48.9874 70.6716 49.6589 71.5 49.6589H74.5C75.3284 49.6589 76 48.9874 76 48.1589C76 47.3305 75.3284 46.6589 74.5 46.6589H71.5ZM70 51.6589C68.8954 51.6589 68 52.5544 68 53.6589V54.6589C68 55.7635 68.8954 56.6589 70 56.6589H71L71 59.6589H72L72 56.6589H75V59.6589H76V56.6589H77C78.1046 56.6589 79 55.7635 79 54.6589V53.6589C79 52.5544 78.1046 51.6589 77 51.6589H70Z" fill="black"/>
<ellipse cx="29.5" cy="53.6589" rx="1.5" ry="1" fill="white"/>
<ellipse cx="76.5" cy="53.6589" rx="1.5" ry="1" fill="white"/>
<defs>
<linearGradient id="paint0_linear_291_1569" x1="49.5" y1="56.6589" x2="49.5" y2="75.6589" gradientUnits="userSpaceOnUse">
<stop stop-color="#EFC88C"/>
<stop offset="1" stop-color="#E78830"/>
</linearGradient>
</defs>
</svg>
